<svg width="1200" height="720" viewBox="0 0 1200 720" fill="none" xmlns="http://www.w3.org/2000/svg">
  <defs>
    <linearGradient id="bg" x1="0" y1="0" x2="1200" y2="720" gradientUnits="userSpaceOnUse">
      <stop offset="0" stop-color="#0F172A"/>
      <stop offset="1" stop-color="#111827"/>
    </linearGradient>
  </defs>
  <rect width="1200" height="720" rx="28" fill="url(#bg)"/>

  <rect x="90" y="110" width="340" height="500" rx="20" fill="#0B2230" stroke="#1F2937" stroke-width="2"/>
  <text x="120" y="150" font-family="Segoe UI, Arial" font-size="18" fill="#E2E8F0">Feed</text>
  <rect x="120" y="180" width="280" height="14" rx="7" fill="#1F2937"/>
  <rect x="120" y="210" width="240" height="14" rx="7" fill="#1F2937"/>
  <rect x="120" y="250" width="280" height="120" rx="14" fill="#0F172A" stroke="#1F2937"/>
  <rect x="120" y="390" width="280" height="120" rx="14" fill="#0F172A" stroke="#1F2937"/>

  <rect x="430" y="110" width="340" height="500" rx="20" fill="#0B2230" stroke="#1F2937" stroke-width="2"/>
  <text x="460" y="150" font-family="Segoe UI, Arial" font-size="18" fill="#E2E8F0">Messages</text>
  <rect x="460" y="185" width="260" height="36" rx="12" fill="#0F172A" stroke="#1F2937"/>
  <rect x="460" y="235" width="260" height="36" rx="12" fill="#0F172A" stroke="#1F2937"/>
  <rect x="460" y="285" width="260" height="36" rx="12" fill="#0F172A" stroke="#1F2937"/>
  <rect x="460" y="350" width="260" height="200" rx="16" fill="#0F172A" stroke="#1F2937"/>

  <rect x="770" y="110" width="340" height="500" rx="20" fill="#0B2230" stroke="#1F2937" stroke-width="2"/>
  <text x="800" y="150" font-family="Segoe UI, Arial" font-size="18" fill="#E2E8F0">Stories & Settings</text>
  <rect x="800" y="185" width="280" height="80" rx="14" fill="#0F172A" stroke="#1F2937"/>
  <rect x="800" y="280" width="280" height="80" rx="14" fill="#0F172A" stroke="#1F2937"/>
  <rect x="800" y="380" width="280" height="120" rx="16" fill="#0F172A" stroke="#1F2937"/>

  <text x="90" y="70" font-family="Segoe UI, Arial" font-size="28" font-weight="700" fill="#E2E8F0">JULO at a glance</text>
  <text x="90" y="95" font-family="Segoe UI, Arial" font-size="16" fill="#94A3B8">Feed, chat, stories, and settings in one place.</text>
</svg>
